<svg width="200" height="82" viewBox="0 0 200 82" fill="none" xmlns="http://www.w3.org/2000/svg">
<path id="Vector" d="M179.266 13.4341L177.705 22.6416C177.672 22.8385 177.408 22.8763 177.325 22.6972C176.212 20.3253 174.039 17.6581 169.817 16.235C165.847 14.9001 161.51 15.2635 157.706 17.0172C152.457 19.4497 144.635 24.8344 141.528 35.995C141.528 35.995 140.352 38.9574 139.864 43.1915C139.71 44.5364 139.146 45.8081 138.248 46.8175C133.542 52.1114 126.158 52.4722 126.158 52.4722C120.632 53.0576 115.507 49.2752 114.105 47.2969C113.818 46.8932 113.679 46.3961 113.77 45.9116C113.79 45.8006 113.868 45.6694 113.868 45.6694C113.868 45.6694 114.502 43.2369 124.041 43.5977C124.167 43.6028 124.295 43.6129 124.419 43.6179C132.905 43.8501 134.479 42.0812 134.479 42.0812C136.397 40.865 138.834 37.4207 139.698 35.2784C141.609 30.5396 140.249 24.9883 136.307 21.7383C135.194 20.8249 133.975 20.2193 132.732 20.03C129.98 19.6086 127.324 19.6742 124.955 21.1327C121.229 23.4214 119.618 26.1465 119.062 27.3123C118.702 28.0693 118.269 28.791 117.712 29.4193C117.256 29.934 116.798 30.3201 116.355 30.6027C116.348 30.6077 116.335 30.6027 116.338 30.5901L121.35 0L101.23 2.52583L93.4885 50.1003C93.0379 52.8658 91.9151 55.5002 90.1024 57.6324C87.3659 60.8496 83.7155 64.4251 82.2503 60.7335C81.8148 59.6359 82.3762 55.5506 82.5725 54.3849L87.7108 24.0799L66.9714 26.6184L62.4273 50.9481C60.0608 63.4032 58.1903 64.3822 54.5802 64.3873C52.7096 64.3923 51.3552 62.9288 51.3779 61.059C51.3905 60.1279 51.466 59.1741 51.5667 58.3137V58.3086L56.856 27.123L36.1166 29.6615L31.0212 59.7141L30.9557 60.0926C30.7568 61.223 30.427 62.3282 29.9235 63.3578C28.4558 66.3655 26.8798 67.5767 24.7374 67.9401C21.9606 68.4019 20.9838 66.6406 20.7396 64.5917C20.6338 63.706 20.6867 62.8052 20.8277 61.9245L30.8097 0L10.5713 2.02874L0.173906 66.5876C-1.21577 75.2047 5.9189 82.8024 14.5817 81.9318L15.7826 81.8132C17.346 81.6593 18.8917 81.3389 20.3771 80.8216C20.6288 80.7333 20.8529 80.65 21.019 80.5718C26.2253 78.1746 29.9311 73.4182 32.363 69.1488C34.878 74.3215 40.1849 77.9374 46.3227 77.9374C46.9621 77.9374 48.2763 77.7179 48.2763 77.7179C49.17 77.6296 52.4302 77.1249 53.2534 76.7464C56.355 75.3182 58.8625 73.3122 60.947 70.8167C61.7501 72.2499 66.8632 77.9349 76.9232 74.9675C83.3857 73.0624 88.1866 69.063 90.7771 66.0325C90.8199 65.982 90.898 66.0224 90.8854 66.088L89.5989 74.0137L109.719 70.9782L111.013 63.0676C111.048 62.8455 111.343 62.8001 111.449 62.9995C115.044 69.6938 120.348 70.3019 122.989 70.1303C123.913 70.0723 124.824 69.8326 125.67 69.449C133.706 65.7852 138.167 56.5196 139.929 51.9953C139.975 51.8817 140.133 51.8969 140.158 52.018C140.71 54.718 141.77 57.4734 143.592 60.0472C147.268 65.22 153.788 67.6322 159.901 65.977C163.481 65.0105 167.657 62.9288 171.592 58.6467L170.663 64.1324L191.403 61.599L200 10.9007L179.261 13.4341H179.266ZM170.18 51.8061C169.462 52.5706 168.785 53.1434 168.189 53.5673C166.766 54.5817 164.956 54.8971 163.297 54.3521C155.47 51.7783 161.371 36.9867 161.371 36.9867C165.419 27.3552 170.477 27.5268 170.477 27.5268C174.963 27.123 175.731 31.3874 175.613 34.9453L174.137 43.6532C173.621 46.6938 172.287 49.5603 170.18 51.8061Z" fill="#ffffff"/>
</svg>
