<svg width="557" height="234" viewBox="0 0 557 234" fill="none" xmlns="http://www.w3.org/2000/svg">
<path d="M45.6182 176.592V176.593C45.2087 179.153 45.0516 181.797 45.3633 184.411C45.7192 187.401 46.6202 190.314 48.5605 192.31C50.5425 194.348 53.4853 195.306 57.625 194.617H57.627C60.7965 194.079 63.5766 192.904 66.1016 190.738C68.6144 188.582 70.8382 185.476 72.9561 181.131C74.4271 178.119 75.3862 174.895 75.9629 171.613V171.611L76.1494 170.531V170.529L90.5781 85.3203L148.131 78.2666L133.226 166.268L133.215 166.33V166.364C132.928 168.827 132.713 171.559 132.677 174.231V174.232C132.607 179.956 136.775 184.503 142.554 184.488L142.555 184.489C145.147 184.486 147.528 184.31 149.718 183.436C151.931 182.552 153.885 180.982 155.687 178.306C159.246 173.017 162.285 163.285 165.654 145.528L165.655 145.526L178.504 76.6367L236.068 69.582L221.592 155.07V155.071C221.309 156.751 220.767 160.518 220.45 164.264C220.292 166.136 220.188 168.017 220.204 169.636C220.22 171.22 220.349 172.663 220.716 173.589C221.812 176.355 223.397 177.941 225.409 178.396C227.37 178.84 229.513 178.155 231.621 176.93C235.844 174.475 240.469 169.532 244.363 164.948C249.628 158.748 252.879 151.1 254.183 143.09L276.154 7.88184L331.945 0.869141L317.822 87.1729C317.771 87.4819 317.906 87.8069 318.197 87.9775C318.439 88.1193 318.756 88.1264 319.015 87.9609L319.016 87.9619C320.342 87.1147 321.701 85.9658 323.042 84.4492L323.041 84.4482C324.686 82.5875 325.957 80.4642 327.003 78.2627C328.542 75.0343 333.046 67.3827 343.515 60.9443H343.516C350.045 56.9192 357.401 56.7089 365.172 57.9004H365.173C368.553 58.4156 371.904 60.0701 374.996 62.6113V62.6123C385.975 71.6745 389.769 87.1667 384.442 100.393C383.243 103.371 380.93 107.3 378.228 110.922C375.518 114.553 372.48 117.791 369.863 119.452L369.774 119.509L369.712 119.578C369.71 119.58 369.704 119.588 369.692 119.599C369.669 119.621 369.624 119.661 369.555 119.717C369.416 119.828 369.178 120.001 368.81 120.215C368.073 120.642 366.816 121.229 364.794 121.805C360.746 122.956 353.659 124.051 341.613 123.721C341.449 123.714 341.281 123.704 341.104 123.693C340.924 123.683 340.736 123.672 340.548 123.664L340.546 123.663L339.285 123.621C326.447 123.24 319.407 124.676 315.537 126.291C313.534 127.127 312.363 128.017 311.684 128.743C311.344 129.106 311.129 129.425 310.996 129.669C310.93 129.791 310.884 129.893 310.853 129.973C310.847 129.988 310.842 130.002 310.837 130.016C310.834 130.02 310.832 130.025 310.829 130.03C310.802 130.08 310.765 130.149 310.727 130.231C310.655 130.383 310.553 130.624 310.507 130.878C310.206 132.491 310.67 134.113 311.586 135.403V135.402C313.671 138.348 318.426 142.528 324.62 145.762C330.818 148.998 338.546 151.333 346.6 150.486C346.602 150.486 346.604 150.486 346.607 150.486C346.619 150.486 346.636 150.485 346.657 150.483C346.7 150.481 346.763 150.477 346.845 150.471C347.008 150.459 347.247 150.44 347.554 150.41C348.168 150.351 349.056 150.251 350.162 150.082C352.374 149.745 355.461 149.137 358.972 148.051C365.986 145.881 374.738 141.79 381.565 134.099L381.566 134.1C384.232 131.103 385.902 127.329 386.357 123.34C387.048 117.346 388.224 112.251 389.228 108.656C389.729 106.86 390.187 105.439 390.519 104.47C390.684 103.985 390.819 103.613 390.911 103.364C390.957 103.24 390.993 103.146 391.017 103.084C391.029 103.053 391.038 103.03 391.044 103.015C391.047 103.007 391.048 103.002 391.05 102.998L391.052 102.994L391.066 102.957L391.077 102.918C399.852 71.3542 421.935 56.1272 436.774 49.2412L436.775 49.2422C447.458 44.311 459.622 43.2968 470.739 47.0391V47.04C482.548 51.0256 488.596 58.4735 491.694 65.084V65.085C492.254 66.2944 493.988 65.9928 494.198 64.7363L498.553 39.0107L556.092 31.9736L531.851 175.105L474.297 182.145L476.777 167.482L477.2 164.981L475.485 166.851C464.721 178.579 453.334 184.455 443.472 187.287L442.521 187.552C425.412 192.191 407.148 185.431 396.85 170.92C391.724 163.672 388.74 155.909 387.187 148.292L387.186 148.289C386.97 147.25 385.519 147.052 385.102 148.1L385.1 148.104C382.601 154.527 378.192 164.306 371.569 173.771C365.15 182.945 356.682 191.78 345.899 197.007L344.85 197.501C342.516 198.561 340.007 199.22 337.472 199.38H337.47C333.792 199.619 328.263 199.313 322.406 196.619C316.744 194.014 310.727 189.155 305.766 180.295L305.289 179.425C304.684 178.289 302.975 178.466 302.671 179.73L302.646 179.853L299.047 201.887L243.262 210.313L246.764 188.713L246.762 188.712C246.835 188.28 246.609 187.896 246.271 187.723C245.923 187.543 245.45 187.588 245.145 187.947C237.834 196.511 224.268 207.825 206.019 213.212C177.744 221.563 163.504 205.563 161.354 201.721L160.821 200.77L160.123 201.606C154.432 208.429 147.629 213.947 139.271 217.945L138.458 218.327C137.948 218.562 136.995 218.84 135.753 219.131C134.53 219.418 133.083 219.705 131.623 219.967C128.698 220.492 125.76 220.911 124.514 221.034L124.488 221.036L124.464 221.041H124.461C124.459 221.041 124.457 221.042 124.454 221.042C124.447 221.043 124.436 221.046 124.423 221.048C124.396 221.052 124.355 221.059 124.303 221.067C124.198 221.084 124.047 221.108 123.859 221.137C123.483 221.195 122.963 221.273 122.387 221.351C121.22 221.508 119.874 221.657 119.02 221.657C101.83 221.657 86.9584 211.516 79.9092 196.999L79.2871 195.718L78.583 196.956C71.6832 209.085 61.2191 222.499 46.5898 229.243L46.584 229.246C46.2579 229.4 45.836 229.566 45.3428 229.745L44.8281 229.929C40.6566 231.383 36.3091 232.287 31.9063 232.721L28.4844 233.06H28.4824C4.28764 235.494 -15.6464 214.245 -11.7637 190.138L17.7764 6.47754L73.9121 0.842773L45.6182 176.592ZM480.959 79.2939C478.813 78.0721 476.132 77.5105 472.831 77.8018H472.82C472.785 77.8016 472.735 77.8019 472.673 77.8037C472.548 77.8073 472.371 77.8161 472.146 77.8379C471.694 77.8815 471.049 77.9764 470.245 78.1777C468.636 78.5808 466.394 79.4113 463.798 81.1162C458.601 84.5288 452.028 91.4098 446.216 105.257L446.211 105.27L446.745 105.482C446.257 105.288 446.215 105.272 446.211 105.271L446.21 105.272C446.209 105.274 446.208 105.277 446.207 105.279C446.205 105.285 446.201 105.293 446.197 105.303C446.189 105.324 446.177 105.356 446.161 105.396C446.129 105.479 446.082 105.6 446.022 105.758C445.903 106.073 445.732 106.535 445.522 107.124C445.103 108.302 444.528 109.992 443.91 112.041C442.675 116.137 441.258 121.686 440.543 127.479C439.829 133.259 439.806 139.347 441.412 144.484C443.029 149.656 446.311 153.888 452.162 155.814C457.13 157.448 462.535 156.498 466.772 153.473C468.514 152.233 470.482 150.566 472.56 148.35C478.675 141.824 482.538 133.505 484.031 124.697V124.696L488.235 99.8467L488.244 99.7969L488.246 99.7471C488.416 94.6373 487.959 88.9 485.769 84.5596C484.666 82.3745 483.112 80.5195 480.959 79.2939Z" stroke="url(#paint0_linear_4182_1422)" stroke-width="1.5"/>
<defs>
<linearGradient id="paint0_linear_4182_1422" x1="564.145" y1="12.2166" x2="-10.6611" y2="211.372" gradientUnits="userSpaceOnUse">
<stop stop-color="#4B61A1"/>
<stop offset="1" stop-color="#1E3A8A"/>
</linearGradient>
</defs>
</svg>
