<svg width="80" height="33" viewBox="0 0 80 33" fill="none" xmlns="http://www.w3.org/2000/svg">
<path d="M71.7063 5.4064L71.0819 9.11188C71.0688 9.19109 70.9631 9.20632 70.9299 9.13422C70.4848 8.17967 69.6157 7.10631 67.927 6.53359C66.3389 5.9964 64.6038 6.14263 63.0822 6.84838C60.9826 7.8273 57.8538 9.99433 56.6112 14.4858C56.6112 14.4858 56.1409 15.678 55.9455 17.3819C55.8841 17.9232 55.6585 18.435 55.299 18.8412C53.4169 20.9716 50.4634 21.1169 50.4634 21.1169C48.253 21.3525 46.2027 19.8303 45.6418 19.0341C45.527 18.8716 45.4716 18.6716 45.5079 18.4766C45.5159 18.4319 45.5472 18.3791 45.5472 18.3791C45.5472 18.3791 45.8009 17.4002 49.6165 17.5454C49.6668 17.5475 49.7182 17.5515 49.7675 17.5536C53.1622 17.647 53.7915 16.9351 53.7915 16.9351C54.5589 16.4457 55.5337 15.0595 55.8791 14.1974C56.6434 12.2903 56.0996 10.0563 54.5226 8.74834C54.0775 8.38074 53.5901 8.13702 53.0927 8.06086C51.992 7.89128 50.9296 7.91768 49.982 8.50463C48.4917 9.42567 47.8472 10.5224 47.6246 10.9915C47.4806 11.2962 47.3074 11.5866 47.0849 11.8395C46.9026 12.0466 46.7193 12.202 46.5421 12.3157C46.5391 12.3177 46.534 12.3157 46.535 12.3106L48.54 0L40.492 1.01649L37.3954 20.1623C37.2151 21.2753 36.766 22.3354 36.041 23.1935C34.9464 24.4883 33.4862 25.9272 32.9001 24.4415C32.7259 23.9998 32.9505 22.3557 33.029 21.8866L35.0843 9.69071L26.7886 10.7123L24.9709 20.5035C24.0243 25.5159 23.2761 25.9099 21.8321 25.9119C21.0839 25.914 20.5421 25.325 20.5511 24.5725C20.5562 24.1978 20.5864 23.814 20.6267 23.4677V23.4657L22.7424 10.9154L14.4466 11.9369L12.4085 24.0313L12.3823 24.1836C12.3027 24.6385 12.1708 25.0833 11.9694 25.4976C11.3823 26.7081 10.7519 27.1955 9.89496 27.3417C8.78423 27.5276 8.39351 26.8188 8.29583 25.9942C8.25353 25.6378 8.27468 25.2752 8.33108 24.9208L12.3239 0L4.22851 0.816444L0.0695623 26.7974C-0.486307 30.2653 2.36756 33.3229 5.83268 32.9726L6.31303 32.9248C6.93838 32.8629 7.55668 32.7339 8.15082 32.5258C8.25152 32.4902 8.34114 32.4567 8.40761 32.4252C10.4901 31.4605 11.9724 29.5463 12.9452 27.8282C13.9512 29.9099 16.074 31.3651 18.5291 31.3651C18.7848 31.3651 19.3105 31.2767 19.3105 31.2767C19.668 31.2412 20.9721 31.0381 21.3014 30.8858C22.542 30.311 23.545 29.5037 24.3788 28.4994C24.7 29.0762 26.7453 31.364 30.7693 30.1698C33.3543 29.4032 35.2746 27.7936 36.3109 26.574C36.328 26.5537 36.3592 26.57 36.3542 26.5964L35.8396 29.786L43.8876 28.5644L44.4052 25.3809C44.4193 25.2915 44.5371 25.2732 44.5794 25.3534C46.0174 28.0475 48.1392 28.2922 49.1956 28.2232C49.5651 28.1998 49.9297 28.1034 50.268 27.949C53.4824 26.4745 55.2668 22.7457 55.9717 20.9249C55.9899 20.8792 56.0533 20.8853 56.0634 20.9341C56.2839 22.0206 56.7079 23.1295 57.4369 24.1653C58.9072 26.2471 61.5153 27.2179 63.9603 26.5517C65.3923 26.1628 67.0629 25.325 68.6369 23.6017L68.2653 25.8094L76.5611 24.7898L80 4.38686L71.7042 5.4064H71.7063ZM68.072 20.8488C67.785 21.1565 67.5141 21.387 67.2754 21.5576C66.7065 21.9658 65.9824 22.0927 65.3188 21.8734C62.188 20.8376 64.5484 14.8849 64.5484 14.8849C66.1677 11.0088 68.1908 11.0778 68.1908 11.0778C69.9853 10.9154 70.2924 12.6315 70.2451 14.0634L69.655 17.5678C69.4485 18.7914 68.9148 19.945 68.072 20.8488Z" fill="white"/>
</svg>
