<svg width="215" height="52" overflow="visible" style="display: block;" viewBox="0 0 215 52" fill="none" xmlns="http://www.w3.org/2000/svg">
<path id="Vector" d="M202.06 31.6351V17.2967H197.264V12.6104H202.06V4.24043H207.192V12.6104H213.885V17.2967H207.192V31.2443C207.192 34.3135 208.475 35.7082 210.873 35.7082C211.82 35.7082 212.49 35.5964 213.215 35.2615L215 39.6695C213.828 40.1715 212.601 40.3952 210.873 40.3952C205.128 40.3952 202.06 37.2148 202.06 31.6351ZM168.987 26.2789C168.987 18.5235 174.342 11.7175 182.373 11.7175C190.516 11.7175 195.759 17.4636 195.759 26.2789C195.759 26.6698 195.703 27.2277 195.703 27.2277H174.119C174.398 33.0304 178.581 36.1541 182.819 36.1541C185.831 36.1541 188.842 34.9271 190.293 31.4679L194.867 33.3646C193.249 37.2699 189.233 40.8411 182.931 40.8411C174.565 40.8411 168.987 34.5363 168.987 26.2789ZM182.261 16.4037C178.469 16.4037 175.457 18.9702 174.453 22.9874H190.293C190.126 20.588 188.118 16.4037 182.261 16.4037ZM143.835 36.1541H143.612V39.9476H138.704V7.24907e-05H143.835V12.6096L143.612 16.4037H143.835C145.397 13.8932 148.8 11.7168 153.15 11.7168C160.065 11.7168 166.145 17.9096 166.145 26.2789C166.145 34.6482 160.065 40.8411 153.15 40.8411C148.8 40.8411 145.397 38.6646 143.835 36.1541ZM161.014 26.2789C161.014 20.1412 156.886 16.4037 152.313 16.4037C147.739 16.4037 143.612 20.0301 143.612 26.2789C143.612 32.5277 147.739 36.1541 152.313 36.1541C156.886 36.1541 161.014 32.4166 161.014 26.2789ZM109.145 31.6901C109.145 25.4979 114.723 22.1498 121.137 22.1498C124.819 22.1498 127.495 23.2097 128.555 23.8242V23.0433C128.555 18.9142 125.264 16.4036 121.416 16.4036C118.572 16.4036 115.838 17.7984 114.89 20.3649L110.206 18.3563C111.153 15.8458 114.444 11.7167 121.304 11.7167C127.998 11.7167 133.463 15.7346 133.463 23.4341V39.9482H128.555V36.1548H128.332C126.826 38.4416 124.038 40.841 119.352 40.841C113.774 40.841 109.145 37.3817 109.145 31.6901ZM128.555 28.1756C128.555 28.1756 126.381 26.39 122.029 26.39C116.619 26.39 114.5 29.2921 114.5 31.8019C114.5 34.7041 117.511 36.1548 120.189 36.1548C124.261 36.1548 128.555 32.6388 128.555 28.1756ZM85.889 12.6095L85.666 16.403H85.889C87.3392 13.8924 90.7975 11.7167 94.5343 11.7167C101.506 11.7167 104.964 16.4589 104.964 23.2104V39.9482H99.8328V23.9913C99.8328 18.3004 96.9884 16.403 93.0841 16.403C88.6217 16.403 85.889 20.6439 85.889 24.8281V39.9482H80.7575V0.000726219H85.889V12.6095ZM54.6014 36.154H54.3784L54.6014 39.9475V52H49.4699V12.6095H54.3784V16.4036H54.6014C56.1634 13.8931 59.5655 11.7167 63.9163 11.7167C70.8319 11.7167 76.9119 17.9096 76.9119 26.2789C76.9119 34.6481 70.8319 40.841 63.9163 40.841C59.5655 40.841 56.1634 38.6646 54.6014 36.154ZM71.7804 26.2789C71.7804 20.1412 67.6527 16.4036 63.0798 16.4036C58.5057 16.4036 54.3784 20.03 54.3784 26.2789C54.3784 32.5276 58.5057 36.154 63.0798 36.154C67.6527 36.154 71.7804 32.4165 71.7804 26.2789ZM38.8742 39.9482H44.0054V0.000726219H38.8742V39.9482ZM15.0599 0L0 39.9482H5.68978L9.59309 29.1243H26.3821L30.2309 39.9482H35.9193L20.8601 0H15.0599ZM17.8478 6.30474H18.0715L24.5971 24.3254H11.3229L17.8478 6.30474Z" fill="var(--fill-0, #D1D5DB)"/>
</svg>
