<svg width="235" height="43.945" overflow="visible" style="display: block;" viewBox="0 0 235 43.945" fill="none" xmlns="http://www.w3.org/2000/svg">
<g id="Group">
<path id="Vector" fill-rule="evenodd" clip-rule="evenodd" d="M135.313 32.054V15.9095H131.6V26.79L121.895 15.9095H118.205V32.054H121.918V21.056L131.577 32.054H135.313ZM212.135 22.842C212.91 22.842 214.202 22.607 214.202 21.009C214.202 19.8575 213.451 19.223 212.135 19.223H205.343V22.842H212.135ZM218.48 32.054H213.991L209.502 26.1555H205.132V32.054H201.418V15.9095H211.923C215.542 15.9095 217.704 17.8365 217.704 21.0795C217.704 23.03 216.623 25.2155 213.803 25.897L218.48 32.054ZM153.549 11.891C160.67 11.891 164.923 15.7215 164.923 22.1135C164.923 26.696 161.939 32.054 153.549 32.054H144.572V11.891H153.549ZM148.308 15.228V28.717H153.572C156.416 28.717 161.21 27.824 161.21 21.902C161.21 17.6485 158.413 15.228 153.572 15.228H148.308ZM223.908 28.7405V25.615H232.485V22.325H223.908V19.223H235V15.9095H220.195V32.054H235V28.764H223.908V28.7405ZM187.859 28.7405V25.615H196.437V22.325H187.859V19.223H198.951V15.9095H184.146V32.054H198.951V28.764H187.859V28.7405ZM170.563 28.7405V25.615H179.14V22.325H170.563V19.223H181.655V15.9095H166.85V32.054H181.655V28.764C181.655 28.7405 170.563 28.7405 170.563 28.7405ZM111.46 15.9095V22.325H101.779V15.9095H98.0655V32.054H101.779V25.6385H111.46V32.054H115.174V15.9095H111.46ZM86.3155 29.14C84.13 29.14 80.4875 28.4585 80.4875 23.9465C80.4875 20.7035 82.626 18.847 86.3155 18.847C90.0285 18.847 92.1435 20.7035 92.1435 23.9465C92.1435 28.4585 88.4775 29.14 86.3155 29.14ZM76.7745 24.111C76.7745 27.9415 79.2655 32.43 86.3155 32.43C93.3655 32.43 95.8565 27.9415 95.8565 24.111C95.8565 18.7295 92.2845 15.5335 86.3155 15.5335C80.323 15.5335 76.7745 18.7295 76.7745 24.111ZM60.4185 28.2235C60.4185 28.2235 62.5335 28.9755 64.8835 28.9755C67.398 28.9755 68.9725 28.623 69.842 27.73C70.5705 27.0015 70.8525 25.7795 70.829 23.9465V11.9145H74.542V24.487C74.495 30.0565 71.7925 32.43 65.5415 32.43C62.51 32.43 60.395 31.9365 60.395 31.9365V28.2235H60.4185ZM44.9085 4.747C38.728 1.7155 31.6075 0 24.1815 0C16.732 0 9.6115 1.7155 3.4075 4.7705C1.1515 10.2225 0 16.074 0 21.9725C0 28.059 1.222 33.84 3.4075 39.1745C9.6115 42.2295 16.732 43.945 24.1815 43.945C31.6075 43.945 38.728 42.2295 44.932 39.198C47.188 33.746 48.363 27.8945 48.363 21.9725C48.3395 15.886 47.1175 10.0815 44.9085 4.747Z" fill="var(--fill-0, #D1D5DB)"/>
<path id="Vector_2" fill-rule="evenodd" clip-rule="evenodd" d="M17.5782 16.9904C16.5207 19.1054 15.8392 21.3849 15.6042 23.7349C15.5102 23.7349 15.0167 23.7819 15.0167 23.7819C12.9252 23.9699 10.7867 24.1344 8.69518 24.9334L8.83618 25.7794C12.2437 30.0094 17.4137 32.5709 17.4607 32.5944L17.5782 32.4769L16.4737 30.6909C16.2152 30.4794 15.5102 30.3384 15.4867 30.3384C13.1602 29.5629 11.5387 26.5314 11.2567 26.0144C13.1837 26.0144 14.8522 26.5549 16.4737 27.0954C17.5547 27.4479 18.5652 27.7769 19.5992 27.9649C21.4322 28.2704 23.3592 27.9179 25.0982 27.7064C26.5082 27.5419 27.8712 27.5419 29.2342 27.6359C29.3987 27.8239 30.8322 29.5629 32.1952 30.2914C33.9107 31.1844 38.8927 32.6884 39.1512 32.7589C39.2452 32.8529 41.1722 34.7799 42.3472 37.0359C36.7542 39.5974 30.4797 40.9604 24.1582 40.9604C17.8367 40.9604 11.5152 39.5974 5.92218 36.9889C4.06568 32.2184 3.12568 27.1189 3.12568 21.9959C3.12568 16.8494 4.06568 11.7969 5.92218 7.00293C11.5387 4.39443 17.8367 3.03143 24.1582 3.03143C30.4797 3.03143 36.7777 4.39443 42.3707 6.97943C44.2272 11.7734 45.1672 16.8494 45.1672 21.9959C45.1672 26.7194 44.3917 31.3489 42.8407 35.7434C41.0547 32.6649 40.3497 31.7249 40.3497 31.7249C40.3262 31.7014 37.8352 30.4089 37.2242 29.8684C36.7307 29.4454 36.4957 28.5759 36.2372 27.5654C35.8612 26.1789 35.3912 24.4634 34.0282 23.0299L35.5322 22.4189C35.1092 19.5049 31.6782 17.6249 31.6547 17.6249L31.4667 17.7189C32.7827 19.3639 33.1587 20.7504 33.1587 21.5964C33.1587 22.0194 33.0882 22.3249 33.0647 22.4424C32.6652 22.3014 30.1507 21.4789 24.3932 21.6904C23.5472 21.7139 22.3487 21.6904 21.6202 20.9854C21.2207 20.5859 21.0092 20.0219 21.0092 19.2934C21.0092 17.2959 21.8552 14.6169 21.9727 14.2409L23.4767 14.4289C25.2627 13.4419 25.9677 12.5724 26.0617 12.4549L25.9677 12.3609C24.4402 12.5489 22.4427 12.9484 22.4427 12.9484C22.5837 12.5959 22.9832 11.4444 22.9832 10.1519C22.9832 8.74193 22.5132 7.16743 20.7272 6.25093L20.5392 6.34493C20.5627 6.36843 21.5732 7.47293 21.5732 9.00043C21.5732 9.42343 21.4792 9.86993 21.2912 10.3634C20.7037 10.1284 20.4687 10.1049 19.7637 10.0814C19.4347 8.88293 18.3772 7.87243 16.9437 7.35543L16.7792 7.44943C16.8027 7.44943 18.3067 8.53043 18.3772 10.1049C17.6252 10.1754 17.2962 10.2459 16.3562 10.5279C15.9567 9.86993 15.0637 9.39993 13.9357 9.25893L13.7947 9.37643C13.8182 9.37643 15.1342 9.84643 15.4162 10.8569C14.5937 11.2329 13.7477 11.8204 13.1602 12.2904L13.2072 12.5019C16.6382 11.1624 19.8342 10.7864 20.6567 11.7499C20.7977 11.9144 20.8682 12.1259 20.8682 12.3374C20.8682 12.6194 20.7507 12.9484 20.5392 13.3244C18.8472 13.7004 16.3092 14.4054 14.2177 15.2044L14.4997 16.0739C14.4997 16.0739 16.5912 16.4969 17.3902 16.6614C17.4372 16.6614 17.7192 16.6849 17.5782 16.9904ZM43.4282 6.03943C37.6472 3.31343 31.0437 1.78593 24.1582 1.78593C17.2727 1.78593 10.6692 3.31343 4.86468 6.06293C2.89068 11.1389 1.85668 16.5439 1.85668 21.9959C1.85668 27.5889 2.91418 32.9469 4.86468 37.8819C10.6692 40.6314 17.2727 42.1589 24.1582 42.1589C31.0202 42.1589 37.6472 40.6314 43.4282 37.9054C45.4257 32.8529 46.4597 27.4479 46.4597 21.9959C46.4832 16.3794 45.4022 10.9979 43.4282 6.03943Z" fill="var(--fill-0, #D1D5DB)"/>
</g>
</svg>
