<svg width="102" height="54" overflow="visible" style="display: block;" viewBox="0 0 102 54" fill="none" xmlns="http://www.w3.org/2000/svg">
<path id="Vector" d="M80.3371 1.20059L72.9714 31.3985L65.5821 1.20059H43.9115V12.3508C41.3091 2.59234 32.1284 0.140587 23.6224 0.00303019C13.261 -0.134527 2.39357 4.38867 1.99196 18.1929H16.3293C16.3293 14.0258 19.5019 11.6388 23.0763 11.6954C27.4618 11.663 29.4859 13.5484 29.5903 16.4937C29.4377 19.0426 27.9437 20.8227 23.1084 20.8227H18.2891V30.8482H22.6666C25.1485 30.8482 28.6103 32.2076 28.7469 35.776C28.9156 40.0241 25.9758 41.9013 22.3694 41.9337C15.9196 41.699 14.8755 36.6984 14.8755 32.4099H0C0.0642568 35.2986 -0.642569 54.1359 22.6826 53.9983C33.8553 54.1035 41.6545 49.3699 43.9437 42.848V52.8412H58.6263V20.2725L66.5621 52.8493H79.3892L87.3574 20.3048V52.8816H102V1.20059H80.3371ZM43.9517 31.3256C42.1284 27.5145 39.5581 25.8476 38.1043 25.3216C41.1405 23.9623 42.7388 22.1174 43.9517 18.4357V31.3256Z" fill="var(--fill-0, #D1D5DB)"/>
</svg>
