<svg width="196.753" height="43.7777" overflow="visible" style="display: block;" viewBox="0 0 196.753 43.7777" fill="none" xmlns="http://www.w3.org/2000/svg">
<g id="Group">
<path id="Vector" d="M189.085 21.2894C189.085 19.6985 190.414 18.5762 192.266 18.5762C193.963 18.5762 194.928 19.3582 194.928 20.7149C194.928 21.9405 193.885 22.6196 192.266 23.3236L189.085 24.6803V21.2894ZM191.953 31.0201C193.779 31.0201 195.371 30.316 196.179 28.8813C196.441 28.4379 196.389 27.9164 195.997 27.6556C195.604 27.3951 195.083 27.473 194.824 27.8648C194.119 28.8827 193.233 29.3776 191.953 29.3776C190.075 29.3776 189.085 28.4129 189.085 26.6643V26.4301L192.814 24.8394C195.682 23.6137 196.753 22.8051 196.753 20.5618C196.753 18.3183 195.004 16.9351 192.239 16.9351C189.474 16.9351 187.309 18.7616 187.309 21.2909V26.6643C187.309 29.2997 189.109 31.0201 191.952 31.0201H191.953ZM184.441 17.0634C181.832 17.0634 180.006 18.9679 180.006 21.8373V30.0023C180.006 30.4971 180.371 30.8889 180.893 30.8889C181.414 30.8889 181.779 30.4971 181.779 30.0023V21.8373C181.779 20.089 182.693 18.7853 184.466 18.7853C184.753 18.7853 185.197 18.8899 185.43 18.8899C185.901 18.8899 186.266 18.5762 186.266 18.0547C186.266 17.6628 186.032 17.3241 185.536 17.1944C185.171 17.0899 184.805 17.0634 184.44 17.0634H184.441ZM169.501 27.2375C169.501 26.0118 170.543 25.3328 172.16 24.6287L175.344 23.272V26.6628C175.344 28.2538 174.014 29.3761 172.16 29.3761C170.465 29.3761 169.501 28.594 169.501 27.2375ZM172.475 16.9336C170.648 16.9336 169.058 17.6378 168.249 19.0725C167.988 19.5158 168.039 20.0374 168.431 20.298C168.822 20.5587 169.345 20.4808 169.605 20.089C170.309 19.071 171.196 18.5762 172.475 18.5762C174.352 18.5762 175.344 19.5409 175.344 21.2894V21.5236L171.614 23.1144C168.744 24.34 167.676 25.1487 167.676 27.392C167.676 29.6354 169.424 31.0186 172.189 31.0186C174.954 31.0186 177.12 29.1921 177.12 26.6628V21.2894C177.12 18.6541 175.318 16.9336 172.475 16.9336ZM156.378 24.8895V18.8899C156.378 16.3858 158.231 14.4546 160.604 14.4546C162.404 14.4546 163.736 15.2367 164.492 16.6981C164.701 17.1149 165.197 17.2975 165.64 17.0899C166.056 16.8807 166.215 16.3858 166.005 15.9674C165.014 13.9067 163.084 12.7592 160.604 12.7592C157.188 12.7592 154.527 15.4195 154.527 18.8899V24.8895C154.527 28.3583 157.188 31.0201 160.604 31.0201C163.083 31.0201 165.014 29.8726 166.005 27.8119C166.215 27.3951 166.056 26.8986 165.64 26.6894C165.197 26.4802 164.7 26.6628 164.492 27.0812C163.736 28.5424 162.404 29.3247 160.604 29.3247C158.231 29.3247 156.378 27.3951 156.378 24.8895ZM142.023 30.1362C142.023 30.4986 142.388 30.8889 142.91 30.8889C143.431 30.8889 143.796 30.4971 143.796 30.0023V21.8667C143.796 20.1183 145.204 18.7101 146.953 18.7101C148.702 18.7101 150.11 20.1183 150.11 21.8667V30.0023C150.11 30.4971 150.475 30.8889 150.997 30.8889C151.517 30.8889 151.883 30.4971 151.883 30.0023V21.8667C151.883 19.2316 149.796 17.0662 147.188 17.0662C145.856 17.0662 144.657 17.6408 143.796 18.5525V13.7755C143.796 13.2806 143.431 12.8888 142.91 12.8888C142.388 12.8888 142.023 13.2806 142.023 13.9096V30.1362ZM136.233 17.1944V13.777C136.233 13.2821 135.867 12.8903 135.346 12.8903C134.824 12.8903 134.459 13.2821 134.459 13.777V17.1944H132.294C131.824 17.1944 131.485 17.5333 131.485 18.0296C131.485 18.4995 131.824 18.8382 132.294 18.8382H134.459V26.1164C134.459 27.4465 134.902 28.6736 135.711 29.5602C136.598 30.5251 137.721 30.8904 139.102 30.8904C139.677 30.8904 140.043 30.447 140.015 29.9771C139.989 29.5073 139.598 29.195 139.129 29.195C137.172 29.195 136.233 27.8914 136.233 26.1164V18.8382H139.207C139.677 18.8382 140.015 18.4995 140.015 18.0031C140.015 17.5332 139.677 17.1944 139.207 17.1944H136.233ZM132.059 30.2113C132.086 29.7415 131.721 29.3761 131.251 29.3247C130.182 29.22 129.582 28.5675 129.582 27.3419V13.777C129.582 13.2821 129.217 12.8903 128.695 12.8903C128.174 12.8903 127.808 13.2821 127.808 13.777V27.3419C127.808 28.3332 128.096 29.1935 128.617 29.8195C129.217 30.5767 130.078 31.0201 131.148 31.0201C131.669 31.0201 132.035 30.6547 132.061 30.2113H132.059ZM117.143 27.2375C117.143 26.0118 118.185 25.3328 119.803 24.6287L122.986 23.272V26.6628C122.986 28.2538 121.656 29.3761 119.803 29.3761C118.107 29.3761 117.143 28.594 117.143 27.2375ZM120.116 16.9336C118.29 16.9336 116.699 17.6378 115.89 19.0725C115.63 19.5158 115.681 20.0374 116.073 20.298C116.465 20.5587 116.986 20.4808 117.247 20.089C117.951 19.071 118.838 18.5762 120.116 18.5762C121.995 18.5762 122.986 19.5409 122.986 21.2894V21.5236L119.256 23.1144C116.387 24.34 115.317 25.1487 115.317 27.392C115.317 29.6354 117.066 31.0186 119.831 31.0186C122.595 31.0186 124.761 29.1921 124.761 26.6628V21.2894C124.761 18.6541 122.961 16.9336 120.118 16.9336H120.116ZM105.821 21.2894C105.821 19.6985 107.151 18.5762 109.004 18.5762C110.699 18.5762 111.664 19.3582 111.664 20.7149C111.664 21.9405 110.621 22.6196 109.004 23.3236L105.821 24.6803V21.2894ZM108.69 31.0201C110.517 31.0201 112.108 30.316 112.916 28.8813C113.177 28.4379 113.125 27.9164 112.734 27.6556C112.342 27.3951 111.82 27.473 111.56 27.8648C110.855 28.8827 109.969 29.3776 108.69 29.3776C106.812 29.3776 105.821 28.4129 105.821 26.6643V26.4301L109.551 24.8394C112.42 23.6137 113.489 22.8051 113.489 20.5618C113.489 18.3183 111.741 16.9351 108.976 16.9351C106.211 16.9351 104.046 18.7616 104.046 21.2909V26.6643C104.046 29.2997 105.846 31.0201 108.689 31.0201H108.69ZM100.92 29.9507V13.8301C100.92 13.2821 100.555 12.8903 99.9803 12.8903C99.4058 12.8903 99.0406 13.2821 99.0406 13.8301V20.7945H90.8064V13.8301C90.8064 13.2821 90.4411 12.8903 89.8667 12.8903C89.2922 12.8903 88.927 13.2821 88.927 13.8301V29.9507C88.927 30.4721 89.3186 30.8904 89.8667 30.8904C90.4147 30.8904 90.8064 30.4986 90.8064 29.9507V22.4383H99.0406V29.9507C99.0406 30.4986 99.4058 30.8904 99.9803 30.8904C100.555 30.8904 100.92 30.4986 100.92 29.9507ZM81.0919 30.7593C81.5619 30.7593 81.9008 30.4205 81.9008 29.9507C81.9008 29.4558 81.5619 29.1155 81.0919 29.1155H73.4353V22.4368H80.4658C80.9359 22.4368 81.2747 22.0981 81.2747 21.6281C81.2747 21.1332 80.9359 20.793 80.4658 20.793H73.4353V14.6623H81.0919C81.5619 14.6623 81.9008 14.3236 81.9008 13.8271C81.9008 13.3572 81.5619 13.0184 81.0919 13.0184H72.522C71.974 13.0184 71.6087 13.4103 71.6087 13.9317V29.8446C71.6087 30.3661 71.974 30.7578 72.522 30.7578H81.0919V30.7593ZM68.3492 24.8895V22.0715C68.3492 21.5501 67.9839 21.1582 67.4359 21.1582H62.5057C62.0357 21.1582 61.6969 21.4971 61.6969 21.967C61.6969 22.4618 62.0357 22.8022 62.5057 22.8022H66.5226V24.8895C66.5226 27.3419 64.6444 29.3247 62.3745 29.3247C60.1047 29.3247 58.2529 27.3685 58.2529 24.8895V18.8899C58.2529 16.3858 60.0263 14.4546 62.3229 14.4546C64.0715 14.4546 65.3232 15.2367 66.0793 16.6981C66.2881 17.1149 66.783 17.2975 67.2267 17.0899C67.6435 16.8807 67.8011 16.3858 67.5919 15.9674C66.6006 13.9067 64.7488 12.7592 62.3229 12.7592C58.9838 12.7592 56.4015 15.4195 56.4015 18.8899V24.8895C56.4015 28.3332 59.0102 31.0201 62.3745 31.0201C65.7389 31.0201 68.3476 28.2287 68.3476 24.8895H68.3492ZM26.8013 16.1899C26.8013 13.7034 28.4836 11.2862 29.4042 11.7458C30.4501 12.2701 28.6206 14.6137 26.8013 16.1899ZM15.3399 17.0987C15.3399 15.0983 17.3152 11.2935 18.523 11.6942C19.9475 12.1685 17.3418 16.0057 15.3399 17.0987ZM13.3395 31.4089C12.4307 31.4502 11.8253 30.8684 11.8253 29.8991C11.8253 27.2919 15.4387 24.804 18.1681 23.4679C17.6835 27.1063 16.455 31.2661 13.3395 31.4089ZM30.0141 22.92C27.9547 22.92 26.3757 24.4372 26.3757 26.2549C26.3757 27.7721 27.2845 28.983 28.4983 28.983C28.924 28.983 29.3452 28.7414 29.3452 28.1948C29.3452 27.4068 28.3008 27.2153 28.3819 26.0355C28.4334 25.2577 29.1656 24.7377 29.8918 24.7377C31.3471 24.7377 32.0276 26.1474 32.0276 27.6027C31.9657 29.8461 30.316 31.4074 28.3761 31.4074C25.8291 31.4074 24.1942 28.9814 24.1942 26.3727C24.1942 22.4929 26.7395 20.9771 28.0726 20.6133C28.0858 20.6133 31.5606 21.2334 31.4516 19.7015C31.4045 19.0298 30.4029 18.7721 29.6767 18.7411C28.8709 18.7087 28.0623 18.9989 28.0623 18.9989C27.638 18.7853 27.345 18.3683 27.1652 17.8853C29.6502 16.0042 31.4089 14.1866 31.4089 12.1243C31.4089 11.0328 30.6813 10.0621 29.2864 10.0621C26.8013 10.0621 24.9204 13.2144 24.9204 16.0647C24.9204 16.5492 24.9204 17.0353 25.0425 17.4595C23.4665 18.6115 22.294 19.3259 20.1713 20.6001C20.1713 20.3334 20.2274 19.6514 20.4055 18.7616C21.1332 17.9736 22.132 16.7937 22.132 15.8834C22.132 15.4592 21.8904 15.0954 21.4043 15.0954C20.1919 15.0954 19.2831 16.9131 19.0401 18.1872C18.4937 18.8546 17.4036 19.7044 16.4933 19.7044C15.7656 19.7044 15.524 19.0357 15.4622 18.7941C17.7674 18.0046 20.6162 14.8523 20.6162 12.0021C20.6162 11.3952 20.3732 10.0606 18.5555 10.0606C15.826 10.0606 13.5222 14.1232 13.5222 17.2769C12.5515 17.2769 12.1891 16.2458 12.1891 15.4578C12.1891 14.6696 12.4926 13.8801 12.4926 13.6386C12.4926 13.397 12.3703 13.0921 12.0065 13.0921C11.0961 13.0921 10.5512 14.3044 10.5512 15.6992C10.613 17.6393 11.8857 18.853 13.5841 18.9738C13.8271 20.1258 14.8582 21.2172 16.1309 21.2172C16.9204 21.2172 17.8896 20.9756 18.557 20.3687C18.495 20.7945 18.4362 21.1569 18.3743 21.5206C15.7067 22.9156 13.7668 23.8862 12.0079 25.4609C10.6145 26.7351 9.82494 28.432 9.82494 29.7681C9.82494 31.5872 10.9768 33.2826 13.341 33.2826C16.1309 33.2826 18.2521 31.0406 19.2831 27.9473C19.7692 26.492 19.9636 24.3753 20.0844 22.4339C22.8743 20.8578 24.1971 19.9445 25.6495 18.9134C25.8322 19.2168 26.0163 19.4599 26.2564 19.641C24.9837 20.3084 21.9522 22.188 21.9522 26.6128C21.9522 29.7666 24.0748 33.2826 28.2582 33.2826C31.7138 33.2826 34.0795 30.4353 34.0795 27.7059C34.0795 25.2194 32.6845 22.9156 30.0154 22.9156L30.0141 22.92ZM40.4386 28.1271C40.4279 28.1463 40.3929 28.1742 40.3263 28.1506C40.2751 28.1315 40.2589 28.1049 40.2601 28.0727C40.2633 28.0372 40.9937 25.8808 40.9894 23.4045C40.9803 20.7355 39.8964 19.099 38.5045 19.099C37.6545 19.099 37.0491 19.7059 37.0491 20.6147C37.0491 22.2526 39.0494 22.3734 39.0494 25.9515C39.0494 27.4068 38.7459 28.7988 38.2614 30.3175C36.018 37.8961 28.8622 41.4122 21.8904 41.4122C18.6763 41.4122 16.3916 40.7522 15.7111 40.4473C15.6831 40.4342 15.6609 40.3795 15.6816 40.3267C15.6979 40.2837 15.7449 40.253 15.77 40.2644C16.0469 40.3736 18.0076 40.9894 20.4321 40.9894C23.0997 40.9894 24.6772 39.8992 24.6772 38.5618C24.6772 37.7148 24.01 37.0476 23.1601 37.0476C21.5236 37.0476 21.4013 39.1083 17.8853 39.1083C16.3695 39.1083 15.0364 38.8064 13.4588 38.3203C5.94061 36.0165 2.35681 28.921 2.3627 21.8874C2.36565 18.4627 3.32458 15.7347 3.34078 15.7081C3.35256 15.6905 3.39528 15.6714 3.44831 15.6905C3.50281 15.7081 3.51755 15.7554 3.51165 15.7685C3.42327 16.0529 2.78694 18.0076 2.78694 20.4321C2.78694 23.1011 3.87842 24.6772 5.27192 24.6772C6.05996 24.6772 6.72724 24.0704 6.72724 23.2234C6.72724 21.5854 4.7269 21.4043 4.7269 17.8868C4.7269 16.3695 5.03032 15.0364 5.51494 13.4603C7.81873 5.94211 14.9128 2.41721 21.8874 2.36418C25.128 2.33914 27.9651 3.30837 28.0711 3.39381C28.0903 3.41001 28.1108 3.45272 28.0903 3.50281C28.0681 3.55879 28.0298 3.56615 28.0107 3.56321C27.9769 3.55879 26.1326 2.7884 23.3412 2.7884C20.7355 2.7884 19.099 3.87843 19.099 5.27483C19.099 6.06291 19.7044 6.72869 20.6133 6.72869C22.2513 6.72869 22.3734 4.72835 25.8881 4.72835C27.4053 4.72835 28.7368 5.03177 30.3145 5.51639C37.8961 7.82019 41.346 14.9761 41.4106 21.8874C41.4445 25.4284 40.4461 28.1095 40.437 28.1271H40.4386ZM21.8904 1.02816C10.37 1.02816 1.02963 10.367 1.02963 21.8859C1.02963 33.4049 10.3685 42.7435 21.8904 42.7435C33.4121 42.7435 42.7466 33.4078 42.7466 21.8859C42.7466 10.3641 33.4108 1.02816 21.8904 1.02816ZM21.8904 43.7762C9.82348 43.7762 0 34.0146 0 21.8874C0 9.76013 9.82053 0 21.8874 0C33.9543 0 43.7762 9.82203 43.7762 21.8889C43.7762 33.9558 33.9513 43.7777 21.8874 43.7777L21.8904 43.7762Z" fill="var(--fill-0, #D1D5DB)"/>
</g>
</svg>
