<svg width="496" height="204" viewBox="0 0 496 204" fill="none" xmlns="http://www.w3.org/2000/svg">
<path d="M50.9121 153.938C50.5549 156.176 50.4169 158.49 50.6895 160.78C51.0002 163.395 51.7883 165.959 53.498 167.721C55.2499 169.526 57.8462 170.367 61.4727 169.762L61.4746 169.761C64.248 169.289 66.6834 168.259 68.8955 166.357C70.9583 164.585 72.7943 162.083 74.5371 158.649L74.8848 157.95C76.1694 155.315 77.0057 152.496 77.5088 149.628V149.626L77.6719 148.685V148.682L90.2148 74.4678L140.096 68.3438L127.146 144.936L127.136 144.997V145.029C126.886 147.177 126.698 149.56 126.667 151.893V151.894C126.606 156.931 130.271 160.944 135.358 160.932L135.359 160.933C137.618 160.929 139.706 160.777 141.63 160.008C143.577 159.229 145.292 157.845 146.868 155.499C149.978 150.87 152.625 142.367 155.557 126.889V126.887L166.725 66.8984L216.615 60.7725L204.04 135.174V135.175C203.794 136.641 203.321 139.928 203.045 143.196C202.907 144.83 202.817 146.473 202.831 147.889C202.845 149.27 202.957 150.544 203.283 151.369C204.244 153.797 205.642 155.212 207.437 155.619C209.179 156.014 211.07 155.401 212.912 154.329C216.603 152.18 220.639 147.858 224.026 143.863C228.62 138.443 231.455 131.758 232.592 124.76L251.699 6.95801L300.046 0.869141L287.777 75.9814C287.727 76.2874 287.86 76.611 288.15 76.7812C288.391 76.9225 288.706 76.9295 288.964 76.7646L288.965 76.7656C288.969 76.7628 288.974 76.7597 288.979 76.7568L288.978 76.7559C290.136 76.0128 291.321 75.0088 292.488 73.6855C293.928 72.0545 295.038 70.1943 295.95 68.2695C297.283 65.4673 301.193 58.8136 310.282 53.2129V53.2119C315.935 49.7208 322.308 49.535 329.061 50.5723H329.062C331.982 51.0181 334.882 52.4514 337.563 54.6592C346.934 62.4093 350.27 75.5745 345.965 86.9463L345.754 87.4863C344.714 90.073 342.707 93.4906 340.358 96.6436C338.003 99.8067 335.368 102.618 333.105 104.057L333.017 104.113L332.956 104.182C332.955 104.183 332.95 104.188 332.941 104.196C332.923 104.214 332.886 104.247 332.828 104.294C332.712 104.388 332.509 104.536 332.192 104.72C331.56 105.087 330.473 105.597 328.72 106.097C325.21 107.097 319.054 108.05 308.579 107.763H308.578C308.437 107.757 308.292 107.749 308.138 107.739C307.982 107.73 307.817 107.72 307.652 107.713H307.65C295.774 107.262 289.341 108.55 285.847 110.011C284.093 110.744 283.063 111.528 282.46 112.173C282.159 112.495 281.968 112.779 281.848 112.999C281.788 113.109 281.746 113.202 281.718 113.274C281.713 113.286 281.709 113.298 281.705 113.309C281.704 113.31 281.703 113.313 281.702 113.314C281.678 113.359 281.645 113.422 281.61 113.495C281.563 113.596 281.498 113.746 281.451 113.913L281.411 114.082C281.16 115.427 281.508 116.777 282.22 117.882L282.367 118.099C284.193 120.682 288.344 124.335 293.743 127.159C299.147 129.986 305.889 132.028 312.921 131.289C312.923 131.289 312.925 131.289 312.927 131.289C312.937 131.289 312.952 131.287 312.971 131.286C313.008 131.284 313.063 131.28 313.135 131.275C313.277 131.265 313.486 131.248 313.754 131.223C314.29 131.171 315.065 131.083 316.029 130.936C317.958 130.641 320.649 130.111 323.71 129.162C329.823 127.268 337.457 123.693 343.414 116.97L343.415 116.971C345.748 114.343 347.209 111.035 347.607 107.538C348.208 102.318 349.23 97.8807 350.103 94.751C350.538 93.1869 350.937 91.9506 351.225 91.1074C351.369 90.6858 351.485 90.362 351.565 90.1455C351.605 90.0377 351.636 89.9562 351.656 89.9023C351.667 89.8754 351.675 89.8548 351.68 89.8418C351.682 89.8355 351.684 89.831 351.686 89.8281C351.686 89.8269 351.686 89.8258 351.687 89.8252V89.8242L351.701 89.7871L351.712 89.749C359.337 62.268 378.527 49.0116 391.424 43.0156L391.425 43.0166C400.7 38.727 411.259 37.8465 420.907 41.1006V41.0996C431.154 44.5644 436.397 51.0372 439.084 56.7803V56.7812C439.614 57.9276 441.252 57.6349 441.448 56.4502L441.447 56.4492L445.225 34.0957L495.093 27.9854L474.032 152.569L424.151 158.682L426.288 146.026L426.711 143.522L424.996 145.396C415.341 155.936 405.11 161.044 396.358 163.414H396.357C381.742 167.384 366.154 161.752 357.145 149.539L356.721 148.952C352.269 142.646 349.678 135.89 348.328 129.261L348.327 129.259L348.305 129.168C348.036 128.253 346.717 128.101 346.328 129.077L346.325 129.083C344.153 134.678 340.32 143.195 334.562 151.438C328.802 159.685 321.149 167.611 311.352 172.093C309.33 173.012 307.158 173.583 304.965 173.722H304.964C301.775 173.93 296.981 173.665 291.903 171.325C286.995 169.063 281.776 164.841 277.468 157.133L277.054 156.376C276.468 155.275 274.776 155.488 274.571 156.782L271.451 175.919L223.109 183.235L226.136 164.534L226.135 164.533C226.205 164.114 225.986 163.74 225.657 163.57C225.358 163.416 224.967 163.432 224.674 163.674L224.557 163.789C218.204 171.244 206.414 181.096 190.557 185.785C166.005 193.05 153.658 179.131 151.804 175.812L151.271 174.859L150.572 175.698C145.469 181.828 139.337 186.746 131.754 190.249C131.32 190.449 130.5 190.69 129.419 190.944C128.357 191.194 127.1 191.443 125.83 191.671C123.286 192.128 120.732 192.493 119.651 192.601L119.626 192.604L119.602 192.607H119.6C119.598 192.608 119.596 192.608 119.593 192.608C119.587 192.609 119.578 192.611 119.566 192.613C119.543 192.617 119.507 192.623 119.462 192.63C119.371 192.645 119.239 192.666 119.076 192.691C118.749 192.742 118.297 192.81 117.797 192.877C116.781 193.014 115.616 193.144 114.88 193.144C99.9619 193.143 87.0545 184.326 80.9355 171.701L80.3125 170.417L79.6084 171.658C73.6082 182.225 64.5153 193.898 51.8125 199.766L51.8066 199.769C51.6199 199.857 51.3961 199.95 51.1406 200.049L50.2881 200.36C46.6664 201.626 42.8915 202.411 39.0674 202.789H39.0664L36.0889 203.084H36.0879C15.1001 205.2 -2.19701 186.733 1.17188 165.776V165.775L26.8652 5.73437L75.5127 0.842773L50.9121 153.938ZM429.88 69.0449C427.995 67.9697 425.646 67.4778 422.763 67.7305C422.758 67.7304 422.754 67.7305 422.749 67.7305C422.717 67.7304 422.673 67.7308 422.618 67.7324C422.508 67.7356 422.351 67.7444 422.152 67.7637C421.755 67.8022 421.188 67.8847 420.483 68.0615C419.073 68.4155 417.113 69.1442 414.844 70.6367C410.302 73.6247 404.572 79.6407 399.509 91.7256L399.503 91.7383V91.7393L399.502 91.7412C399.501 91.7425 399.501 91.7441 399.5 91.7461C399.498 91.751 399.495 91.7583 399.491 91.7676C399.484 91.7862 399.474 91.8139 399.46 91.8496C399.432 91.9214 399.391 92.0274 399.339 92.165C399.235 92.4404 399.085 92.8441 398.902 93.3584C398.537 94.3868 398.037 95.8612 397.499 97.6494C396.423 101.223 395.188 106.067 394.564 111.124C393.943 116.169 393.922 121.492 395.325 125.989C396.739 130.521 399.614 134.238 404.741 135.93H404.742C409.096 137.364 413.832 136.53 417.543 133.876C419.064 132.792 420.781 131.333 422.594 129.396C427.929 123.691 431.299 116.421 432.601 108.726L436.259 87.0615L436.268 87.0127L436.27 86.9619C436.417 82.5031 436.021 77.4817 434.104 73.6758C433.137 71.758 431.773 70.1249 429.88 69.0449Z" stroke="url(#paint0_linear_4208_834)" stroke-width="1.5"/>
<defs>
<linearGradient id="paint0_linear_4208_834" x1="502.218" y1="10.6504" x2="1.83623" y2="183.697" gradientUnits="userSpaceOnUse">
<stop stop-color="#4B61A1"/>
<stop offset="1" stop-color="#1E3A8A"/>
</linearGradient>
</defs>
</svg>
