<svg width="192" height="54" overflow="visible" style="display: block;" viewBox="0 0 192 54" fill="none" xmlns="http://www.w3.org/2000/svg">
<path id="Vector" d="M153.805 12.5878C155.615 12.9148 157.401 13.2798 159.141 13.6619V47.1763C160.74 46.8 163.714 46.0166 165.695 45.4254V15.2456C167.596 15.7418 169.391 16.2398 171.03 16.7151V10.2514C165.856 8.43012 160.299 6.94724 153.805 5.57845V12.5878ZM0 26.9122C0 31.8684 4.77055 36.5109 13.0954 40.4919V13.441C4.77055 17.3915 0 22.0017 0 26.9122ZM192 26.9113C192 31.8769 187.222 36.5118 178.895 40.4986V13.4325C187.222 17.3925 192 22.0026 192 26.9113ZM38.1023 37.9703C38.1023 40.0444 36.8675 40.7364 35.3892 40.7364C34.239 40.7364 32.4627 40.3144 31.0146 39.9153V14.0488C32.4627 13.6629 34.239 13.2408 35.3892 13.2408C36.8675 13.2408 38.1023 13.9329 38.1023 16.0069V37.9703ZM36.3565 6.47862C34.0316 6.47862 30.679 7.17063 24.6111 9.06033V44.9168C29.9473 46.5461 34.0316 47.4987 36.3565 47.4987C41.7154 47.4987 44.7341 44.1945 44.7341 38.8926V15.0849C44.7341 9.78274 41.7154 6.47862 36.3565 6.47862ZM90.0845 25.0296C90.0845 27.2881 89.3002 28.4345 86.3267 28.442L83.7585 28.4492V7.72342C84.9008 7.66252 85.5119 7.64741 86.1982 7.64741C89.4134 7.64741 90.0845 8.87552 90.0845 11.1816V25.0296ZM86.6246 0.315258C85.3518 0.315258 80.7092 0.476846 76.4403 0.729704V53.2553C77.8884 53.3332 81.7013 53.5328 83.7585 53.5859V35.7499L86.6246 35.7427C94.2914 35.7199 97.4781 32.2542 97.4781 25.5833V10.1063C97.4781 3.57416 93.8951 0.315258 86.6246 0.315258ZM143.935 29.2795L135.817 2.57475C133.607 2.2839 130.939 1.98352 128.882 1.79151V52.1952C130.328 52.0566 134.018 51.6347 135.925 51.3894L135.344 21.6866L143.935 50.2278C145.763 49.9369 148.431 49.4673 150.185 49.1288V4.84278C148.354 4.48157 145.032 3.91316 143.431 3.666L143.935 29.2795ZM63.4075 42.1744C63.4075 44.2484 62.6985 45.564 60.1302 45.2487C57.6073 44.9404 56.9287 43.8646 56.9287 41.4064V2.38258C55.2522 2.56696 51.517 3.08979 49.9163 3.32172V42.7884C49.9163 49.0906 52.9499 51.5433 60.1302 52.3719C66.6999 53.1324 70.7237 49.7826 70.7237 42.7884V1.09172C69.3529 1.16971 64.8556 1.55369 63.4075 1.70768V42.1744ZM116.228 43.3734C116.228 45.4474 115.542 46.5237 112.951 46.6016C110.283 46.6776 109.559 45.5254 109.559 43.3734V10.6288C109.559 8.47672 110.283 7.28664 112.951 7.36269C115.542 7.4387 116.228 8.55467 116.228 10.6288V43.3734ZM112.951 0.0244343C106.167 -0.306359 102.128 2.7126 102.128 9.62879V43.9874C102.128 51.2894 105.786 54.2933 112.951 53.9776C119.964 53.6717 123.622 50.9816 123.622 43.2195V10.4216C123.622 3.02059 120.315 0.385652 112.951 0.0244343Z" fill="var(--fill-0, #D1D5DB)"/>
</svg>
