<svg width="50" height="50" viewBox="0 0 50 50" fill="none" xmlns="http://www.w3.org/2000/svg">
<path d="M25 50C11.22 50 0 38.7908 0 25C0 11.2091 11.2092 0 25 0C38.7908 0 50 11.2091 50 25C50 38.7908 38.7908 50 25 50ZM17.8105 47.8104C19.9129 48.4749 22.146 48.8562 24.4553 48.9107V1.11111C22.146 1.16557 19.9129 1.54684 17.8105 2.21133V47.8214V47.8104ZM25.5447 1.11111V48.9107C27.854 48.8562 30.0871 48.4749 32.1895 47.8104V2.20043C30.0871 1.53594 27.854 1.15468 25.5447 1.10021V1.11111ZM33.268 39.9891V47.4401C35.0218 46.7974 36.6667 45.9477 38.2026 44.9237L33.268 39.9891ZM11.7865 44.9237C13.3224 45.9368 14.9673 46.7865 16.7211 47.4401V39.9891L11.7865 44.9237ZM33.268 38.4532L39.1068 44.2919C40.9041 42.9739 42.5054 41.4161 43.8671 39.6623L35.4575 31.2527L33.268 33.4423V38.4532ZM6.11111 39.6623C7.47277 41.4161 9.08497 42.9739 10.8715 44.2919L16.7102 38.4532V29.0632L6.11111 39.6623ZM36.2309 30.4793L44.5316 38.78C45.8715 36.8845 46.939 34.793 47.6906 32.5381L40.9259 25.7734L36.2309 30.4684V30.4793ZM2.29847 32.5381C3.05011 34.7821 4.11765 36.8845 5.45752 38.78L16.7211 27.5163V18.1264L2.30937 32.5381H2.29847ZM33.268 22.5054V31.8954L47.6797 17.4837C46.939 15.2396 45.8606 13.1373 44.5207 11.2418L33.2571 22.5054H33.268ZM41.6993 25.0109L48.0501 31.3616C48.6057 29.3355 48.9107 27.2113 48.9107 25.0109C48.9107 22.8105 48.6166 20.6863 48.0501 18.6601L41.6993 25.0109ZM1.939 18.6601C1.38344 20.6863 1.07843 22.8105 1.07843 25.0109C1.07843 27.2113 1.37255 29.3355 1.939 31.3616L8.28976 25.0109L1.939 18.6601ZM2.29847 17.4837L9.05229 24.2484L13.7473 19.5534L5.44662 11.2527C4.10675 13.1481 3.03922 15.2396 2.28758 17.4946L2.29847 17.4837ZM33.268 11.5686V20.9586L43.8671 10.3595C42.5054 8.60566 40.8932 7.04792 39.1068 5.72984L33.268 11.5686ZM6.11111 10.3595L14.5207 18.7691L16.7102 16.5795V11.5686L10.8715 5.72984C9.07407 7.04792 7.47277 8.60566 6.11111 10.3595ZM33.268 2.58169V10.0327L38.2026 5.09804C36.6667 4.07407 35.0218 3.23529 33.268 2.58169ZM11.7865 5.08714L16.7211 10.0218V2.5708C14.9673 3.2135 13.3115 4.06318 11.7865 5.08714Z" fill="#1E3A8A"/>
</svg>
