<svg width="100%" height="100%" viewBox="0 0 1566 643" fill="none" xmlns="http://www.w3.org/2000/svg" preserveAspectRatio="xMinYMid meet">
<defs>
  <linearGradient id="cases-wordmark-gradient" x1="1566" y1="0" x2="0" y2="643" gradientUnits="userSpaceOnUse">
    <stop offset="0" stop-color="#4b61a1"/>
    <stop offset="1" stop-color="#1e3a8a"/>
  </linearGradient>
</defs>
<path d="M1403.65 105.343L1391.43 177.544C1391.17 179.087 1389.1 179.384 1388.45 177.979C1379.74 159.38 1362.73 138.465 1329.67 127.306C1298.58 116.839 1264.62 119.688 1234.83 133.44C1193.73 152.514 1132.49 194.738 1108.16 282.253C1108.16 282.253 1098.96 305.483 1095.13 338.684C1093.93 349.231 1089.52 359.203 1082.48 367.117C1045.64 408.629 987.821 411.459 987.821 411.459C944.552 416.049 904.418 386.389 893.439 370.877C891.191 367.711 890.107 363.813 890.817 360.014C890.974 359.144 891.586 358.115 891.586 358.115C891.586 358.115 896.553 339.041 971.243 341.87C972.228 341.91 973.234 341.989 974.199 342.028C1040.65 343.849 1052.97 329.978 1052.97 329.978C1067.99 320.441 1087.07 293.433 1093.83 276.634C1108.79 239.475 1098.15 195.945 1067.28 170.46C1058.57 163.297 1049.03 158.549 1039.29 157.065C1017.74 153.76 996.947 154.275 978.398 165.711C949.224 183.658 936.608 205.027 932.252 214.168C929.433 220.104 926.043 225.763 921.686 230.69C918.118 234.726 914.531 237.754 911.061 239.97C911.002 240.009 910.904 239.97 910.923 239.871L950.17 0L792.63 19.8062L732.015 392.86C728.487 414.546 719.695 435.203 705.502 451.922C684.075 477.15 655.492 505.187 644.02 476.24C640.61 467.633 645.005 435.598 646.543 426.457L686.776 188.822L524.386 208.727L488.806 399.508C470.276 497.174 455.63 504.851 427.363 504.89C412.716 504.93 402.111 493.454 402.289 478.792C402.387 471.491 402.979 464.012 403.767 457.264V457.225L445.182 212.684L282.793 232.59L242.896 468.246L242.383 471.214C240.826 480.078 238.244 488.745 234.301 496.818C222.809 520.403 210.469 529.9 193.694 532.75C171.951 536.371 164.303 522.56 162.391 506.493C161.563 499.548 161.977 492.484 163.081 485.579L241.24 0L82.7732 15.9083L1.36168 522.144C-9.51947 589.715 46.345 649.292 114.175 642.466L123.578 641.536C135.819 640.329 147.922 637.816 159.552 633.759C161.524 633.067 163.278 632.414 164.579 631.801C205.344 613.003 234.36 575.706 253.402 542.227C273.095 582.79 314.648 611.144 362.707 611.144C367.713 611.144 378.003 609.422 378.003 609.422C385.001 608.73 410.528 604.772 416.974 601.804C441.26 590.605 460.893 574.875 477.215 555.306C483.503 566.545 523.539 611.124 602.309 587.855C652.91 572.916 690.501 541.555 710.785 517.791C711.12 517.395 711.731 517.712 711.633 518.226L701.56 580.376L859.1 556.573L869.232 494.542C869.508 492.801 871.814 492.445 872.642 494.008C900.791 546.501 942.325 551.27 963.003 549.924C970.237 549.469 977.373 547.59 983.997 544.582C1046.92 515.852 1081.85 443.196 1095.65 407.719C1096 406.829 1097.24 406.948 1097.44 407.897C1101.76 429.069 1110.06 450.676 1124.33 470.858C1153.11 511.42 1204.16 530.336 1252.02 517.356C1280.05 509.778 1312.76 493.454 1343.57 459.876L1336.29 502.892L1498.68 483.026L1566 85.4774L1403.61 105.343H1403.65ZM1332.51 406.235C1326.89 412.231 1321.59 416.722 1316.92 420.046C1305.78 428 1291.61 430.474 1278.62 426.2C1217.33 406.018 1263.54 290.03 1263.54 290.03C1295.23 214.505 1334.83 215.85 1334.83 215.85C1369.96 212.684 1375.97 246.123 1375.05 274.022L1363.5 342.305C1359.46 366.148 1349.01 388.625 1332.51 406.235Z" stroke="url(#cases-wordmark-gradient)" stroke-width="4.5"/>
</svg>
