<svg width="70" height="50" viewBox="0 0 70 50" fill="none" xmlns="http://www.w3.org/2000/svg">
<path d="M28.8633 50L0 0H30.5721L34.8935 7.49132L39.215 0H69.787L40.9237 50L34.8811 39.4998L28.8633 50ZM35.5993 38.2615L40.9237 47.5235L48.7494 33.9648L43.3878 24.6781L35.5993 38.2615ZM21.0376 33.9648L28.8633 47.5111L34.1753 38.2491L26.3868 24.7028L21.0376 33.9525V33.9648ZM27.0926 23.4646L34.8811 37.0109L42.6697 23.4274L35.8717 11.6642H33.9029L27.0926 23.4646ZM2.14214 1.23824L20.3195 32.7266L25.6686 23.4646L18.1649 10.426H33.1971L34.1753 8.71718L29.8539 1.22584H2.14214V1.23824ZM44.106 23.4274L49.4676 32.7142L67.6449 1.22584H39.9331L35.6117 8.71718L36.5899 10.426H51.5602L44.106 23.4274ZM20.3071 11.6642L26.3868 22.2264L32.479 11.6642H20.3071ZM37.3081 11.6642L43.3878 22.1892L49.418 11.6642H37.3081ZM34.6211 10.426H35.1535L34.8811 9.95542L34.6087 10.426H34.6211Z" fill="#1E3A8A"/>
</svg>
