<svg width="44" height="50" viewBox="0 0 44 50" fill="none" xmlns="http://www.w3.org/2000/svg">
<path d="M21.6791 49.9908L21.4559 49.7696L0 37.2166L0.0837032 36.9124L0.316212 12.2212L0.623124 12.1382L22.3209 0L22.5441 0.221198L44 12.7742L43.9163 13.0783L43.6838 37.7696L43.3769 37.8525L21.6791 50V49.9908ZM8.09131 35.023L21.8558 48.7558L39.5544 38.8479L23.5113 43.0507L9.64447 29.3088L8.10061 35.023H8.09131ZM1.16255 36.7465L18.6658 46.9862L6.97527 35.318L12.0533 16.5438L6.28704 18.0737L1.16255 36.7558V36.7465ZM19.5866 37.7604L23.8089 41.9447L42.6887 36.9954L42.884 16.8479L38.5314 32.7189L19.5866 37.7512V37.7604ZM9.93278 28.2028L18.7681 36.9585L30.8307 33.7512L34.0672 21.7972L25.2319 13.0415L13.1693 16.2488L9.93278 28.2028ZM25.3342 3.00461L37.0247 14.6728L31.9467 33.447L37.713 31.9171L42.8375 13.235L25.3342 3.00461ZM1.31135 12.9862L1.11604 33.1336L5.46861 17.2627L24.4134 12.2304L20.1911 8.04608L1.31135 12.9862ZM20.498 6.94009L34.3648 20.682L35.9087 14.9677L22.1442 1.23502L4.44557 11.1429L20.4887 6.94009H20.498Z" fill="#1E3A8A"/>
</svg>
